<mxfile host="app.diagrams.net" modified="2020-11-06T20:02:30.833Z" agent="5.0 (Macintosh; Intel Mac OS X 10_15_7) AppleWebKit/537.36 (KHTML, like Gecko) Chrome/86.0.4240.111 Safari/537.36" etag="2kBibi8MLbpB8pitxkAN" version="13.9.2" type="github">
  <diagram id="JXy_-5g3AJDw-Hipxu5U" name="Page-1">
    <mxGraphModel dx="988" dy="566" grid="1" gridSize="10" guides="1" tooltips="1" connect="1" arrows="1" fold="1" page="1" pageScale="1" pageWidth="850" pageHeight="1100" math="0" shadow="0">
      <root>
        <mxCell id="0" />
        <mxCell id="1" parent="0" />
        <mxCell id="DaDHKpYLHmDfNTXGdmyQ-12" value="" style="endArrow=classic;html=1;" edge="1" parent="1">
          <mxGeometry width="50" height="50" relative="1" as="geometry">
            <mxPoint x="200" y="400" as="sourcePoint" />
            <mxPoint x="200" y="41" as="targetPoint" />
          </mxGeometry>
        </mxCell>
        <mxCell id="DaDHKpYLHmDfNTXGdmyQ-13" value="" style="endArrow=classic;html=1;" edge="1" parent="1">
          <mxGeometry width="50" height="50" relative="1" as="geometry">
            <mxPoint x="160" y="361" as="sourcePoint" />
            <mxPoint x="550" y="361" as="targetPoint" />
          </mxGeometry>
        </mxCell>
        <mxCell id="DaDHKpYLHmDfNTXGdmyQ-14" value="" style="ellipse;whiteSpace=wrap;html=1;aspect=fixed;fillColor=#000000;" vertex="1" parent="1">
          <mxGeometry x="235" y="275" width="10" height="10" as="geometry" />
        </mxCell>
        <mxCell id="DaDHKpYLHmDfNTXGdmyQ-21" style="rounded=0;orthogonalLoop=1;jettySize=auto;html=1;exitX=0;exitY=1;exitDx=0;exitDy=0;entryX=1;entryY=0;entryDx=0;entryDy=0;shadow=0;jumpStyle=none;" edge="1" parent="1" source="DaDHKpYLHmDfNTXGdmyQ-16" target="DaDHKpYLHmDfNTXGdmyQ-14">
          <mxGeometry relative="1" as="geometry" />
        </mxCell>
        <mxCell id="DaDHKpYLHmDfNTXGdmyQ-26" value="&lt;span style=&quot;font-family: verdana; font-size: 10px; background-color: rgb(248, 249, 250);&quot;&gt;mother_of&lt;/span&gt;" style="edgeLabel;html=1;align=center;verticalAlign=middle;resizable=0;points=[];fontSize=10;" vertex="1" connectable="0" parent="DaDHKpYLHmDfNTXGdmyQ-21">
          <mxGeometry x="0.0247" y="-1" relative="1" as="geometry">
            <mxPoint x="-16.95" y="-20.14" as="offset" />
          </mxGeometry>
        </mxCell>
        <mxCell id="DaDHKpYLHmDfNTXGdmyQ-25" style="edgeStyle=none;rounded=0;jumpStyle=none;orthogonalLoop=1;jettySize=auto;html=1;exitX=1;exitY=0.5;exitDx=0;exitDy=0;entryX=0;entryY=0.5;entryDx=0;entryDy=0;shadow=0;strokeColor=#000000;" edge="1" parent="1" source="DaDHKpYLHmDfNTXGdmyQ-16" target="DaDHKpYLHmDfNTXGdmyQ-18">
          <mxGeometry relative="1" as="geometry" />
        </mxCell>
        <mxCell id="DaDHKpYLHmDfNTXGdmyQ-27" value="&lt;span style=&quot;font-size: 10px;&quot;&gt;married_to&lt;/span&gt;" style="edgeLabel;html=1;align=center;verticalAlign=middle;resizable=0;points=[];fontSize=10;" vertex="1" connectable="0" parent="DaDHKpYLHmDfNTXGdmyQ-25">
          <mxGeometry x="-0.2232" relative="1" as="geometry">
            <mxPoint y="-11.22" as="offset" />
          </mxGeometry>
        </mxCell>
        <mxCell id="DaDHKpYLHmDfNTXGdmyQ-16" value="" style="ellipse;whiteSpace=wrap;html=1;aspect=fixed;fillColor=#000000;" vertex="1" parent="1">
          <mxGeometry x="314" y="196" width="10" height="10" as="geometry" />
        </mxCell>
        <mxCell id="DaDHKpYLHmDfNTXGdmyQ-18" value="" style="ellipse;whiteSpace=wrap;html=1;aspect=fixed;fillColor=#000000;" vertex="1" parent="1">
          <mxGeometry x="514" y="196" width="10" height="10" as="geometry" />
        </mxCell>
        <mxCell id="DaDHKpYLHmDfNTXGdmyQ-23" value="&lt;span style=&quot;font-size: 10px;&quot;&gt;capital_of&lt;/span&gt;" style="edgeStyle=none;rounded=0;jumpStyle=none;orthogonalLoop=1;jettySize=auto;html=1;exitX=1;exitY=0.5;exitDx=0;exitDy=0;entryX=0;entryY=0.5;entryDx=0;entryDy=0;shadow=0;strokeColor=#000000;fontSize=10;" edge="1" parent="1" source="DaDHKpYLHmDfNTXGdmyQ-19" target="DaDHKpYLHmDfNTXGdmyQ-20">
          <mxGeometry y="15" relative="1" as="geometry">
            <mxPoint as="offset" />
          </mxGeometry>
        </mxCell>
        <mxCell id="DaDHKpYLHmDfNTXGdmyQ-19" value="" style="ellipse;whiteSpace=wrap;html=1;aspect=fixed;fillColor=#000000;" vertex="1" parent="1">
          <mxGeometry x="277" y="314" width="10" height="10" as="geometry" />
        </mxCell>
        <mxCell id="DaDHKpYLHmDfNTXGdmyQ-20" value="" style="ellipse;whiteSpace=wrap;html=1;aspect=fixed;fillColor=#000000;" vertex="1" parent="1">
          <mxGeometry x="473" y="314" width="10" height="10" as="geometry" />
        </mxCell>
        <mxCell id="DaDHKpYLHmDfNTXGdmyQ-28" value="&lt;span style=&quot;font-family: verdana; font-size: 9px;&quot;&gt;John&lt;/span&gt;" style="text;html=1;align=center;verticalAlign=middle;resizable=0;points=[];autosize=1;fontSize=9;" vertex="1" parent="1">
          <mxGeometry x="222.5" y="290" width="40" height="20" as="geometry" />
        </mxCell>
        <mxCell id="DaDHKpYLHmDfNTXGdmyQ-29" value="&lt;span style=&quot;font-family: verdana; font-size: 9px;&quot;&gt;Alice&lt;/span&gt;" style="text;html=1;align=center;verticalAlign=middle;resizable=0;points=[];autosize=1;fontSize=9;" vertex="1" parent="1">
          <mxGeometry x="299" y="171" width="40" height="20" as="geometry" />
        </mxCell>
        <mxCell id="DaDHKpYLHmDfNTXGdmyQ-30" value="&lt;span style=&quot;font-family: verdana; font-size: 9px;&quot;&gt;Alex&lt;/span&gt;" style="text;html=1;align=center;verticalAlign=middle;resizable=0;points=[];autosize=1;fontSize=9;" vertex="1" parent="1">
          <mxGeometry x="504" y="171" width="30" height="20" as="geometry" />
        </mxCell>
        <mxCell id="DaDHKpYLHmDfNTXGdmyQ-31" value="&lt;span style=&quot;font-family: verdana; font-size: 9px;&quot;&gt;Berlin&lt;/span&gt;" style="text;html=1;align=center;verticalAlign=middle;resizable=0;points=[];autosize=1;fontSize=9;" vertex="1" parent="1">
          <mxGeometry x="262" y="324" width="40" height="20" as="geometry" />
        </mxCell>
        <mxCell id="DaDHKpYLHmDfNTXGdmyQ-32" value="&lt;span style=&quot;font-family: verdana; font-size: 9px;&quot;&gt;Germany&lt;/span&gt;" style="text;html=1;align=center;verticalAlign=middle;resizable=0;points=[];autosize=1;fontSize=9;" vertex="1" parent="1">
          <mxGeometry x="448" y="324" width="60" height="20" as="geometry" />
        </mxCell>
        <mxCell id="DaDHKpYLHmDfNTXGdmyQ-38" value="" style="endArrow=none;html=1;shadow=0;strokeColor=#000000;fontSize=10;" edge="1" parent="1">
          <mxGeometry width="50" height="50" relative="1" as="geometry">
            <mxPoint x="195" y="320" as="sourcePoint" />
            <mxPoint x="205" y="320" as="targetPoint" />
          </mxGeometry>
        </mxCell>
        <mxCell id="DaDHKpYLHmDfNTXGdmyQ-39" value="" style="endArrow=none;html=1;shadow=0;strokeColor=#000000;fontSize=10;" edge="1" parent="1">
          <mxGeometry width="50" height="50" relative="1" as="geometry">
            <mxPoint x="195" y="279.86" as="sourcePoint" />
            <mxPoint x="205" y="279.86" as="targetPoint" />
          </mxGeometry>
        </mxCell>
        <mxCell id="DaDHKpYLHmDfNTXGdmyQ-40" value="" style="endArrow=none;html=1;shadow=0;strokeColor=#000000;fontSize=10;" edge="1" parent="1">
          <mxGeometry width="50" height="50" relative="1" as="geometry">
            <mxPoint x="195" y="240" as="sourcePoint" />
            <mxPoint x="205" y="240" as="targetPoint" />
          </mxGeometry>
        </mxCell>
        <mxCell id="DaDHKpYLHmDfNTXGdmyQ-41" value="" style="endArrow=none;html=1;shadow=0;strokeColor=#000000;fontSize=10;" edge="1" parent="1">
          <mxGeometry width="50" height="50" relative="1" as="geometry">
            <mxPoint x="195" y="200.86" as="sourcePoint" />
            <mxPoint x="205" y="200.86" as="targetPoint" />
          </mxGeometry>
        </mxCell>
        <mxCell id="DaDHKpYLHmDfNTXGdmyQ-42" value="" style="endArrow=none;html=1;shadow=0;strokeColor=#000000;fontSize=10;" edge="1" parent="1">
          <mxGeometry width="50" height="50" relative="1" as="geometry">
            <mxPoint x="195" y="160" as="sourcePoint" />
            <mxPoint x="205" y="160" as="targetPoint" />
          </mxGeometry>
        </mxCell>
        <mxCell id="DaDHKpYLHmDfNTXGdmyQ-43" value="" style="endArrow=none;html=1;shadow=0;strokeColor=#000000;fontSize=10;" edge="1" parent="1">
          <mxGeometry width="50" height="50" relative="1" as="geometry">
            <mxPoint x="195" y="120" as="sourcePoint" />
            <mxPoint x="205" y="120" as="targetPoint" />
          </mxGeometry>
        </mxCell>
        <mxCell id="DaDHKpYLHmDfNTXGdmyQ-44" value="" style="endArrow=none;html=1;shadow=0;strokeColor=#000000;fontSize=10;" edge="1" parent="1">
          <mxGeometry width="50" height="50" relative="1" as="geometry">
            <mxPoint x="195" y="80" as="sourcePoint" />
            <mxPoint x="205" y="80" as="targetPoint" />
          </mxGeometry>
        </mxCell>
        <mxCell id="DaDHKpYLHmDfNTXGdmyQ-45" value="" style="endArrow=none;html=1;shadow=0;strokeColor=#000000;fontSize=10;" edge="1" parent="1">
          <mxGeometry width="50" height="50" relative="1" as="geometry">
            <mxPoint x="239.86" y="358" as="sourcePoint" />
            <mxPoint x="239.86" y="364" as="targetPoint" />
          </mxGeometry>
        </mxCell>
        <mxCell id="DaDHKpYLHmDfNTXGdmyQ-46" value="" style="endArrow=none;html=1;shadow=0;strokeColor=#000000;fontSize=10;" edge="1" parent="1">
          <mxGeometry width="50" height="50" relative="1" as="geometry">
            <mxPoint x="280" y="358" as="sourcePoint" />
            <mxPoint x="280" y="364" as="targetPoint" />
          </mxGeometry>
        </mxCell>
        <mxCell id="DaDHKpYLHmDfNTXGdmyQ-47" value="" style="endArrow=none;html=1;shadow=0;strokeColor=#000000;fontSize=10;" edge="1" parent="1">
          <mxGeometry width="50" height="50" relative="1" as="geometry">
            <mxPoint x="319.86" y="358" as="sourcePoint" />
            <mxPoint x="319.86" y="364" as="targetPoint" />
          </mxGeometry>
        </mxCell>
        <mxCell id="DaDHKpYLHmDfNTXGdmyQ-48" value="" style="endArrow=none;html=1;shadow=0;strokeColor=#000000;fontSize=10;" edge="1" parent="1">
          <mxGeometry width="50" height="50" relative="1" as="geometry">
            <mxPoint x="360" y="358" as="sourcePoint" />
            <mxPoint x="360" y="364" as="targetPoint" />
          </mxGeometry>
        </mxCell>
        <mxCell id="DaDHKpYLHmDfNTXGdmyQ-49" value="" style="endArrow=none;html=1;shadow=0;strokeColor=#000000;fontSize=10;" edge="1" parent="1">
          <mxGeometry width="50" height="50" relative="1" as="geometry">
            <mxPoint x="400" y="358" as="sourcePoint" />
            <mxPoint x="400" y="364" as="targetPoint" />
          </mxGeometry>
        </mxCell>
        <mxCell id="DaDHKpYLHmDfNTXGdmyQ-50" value="" style="endArrow=none;html=1;shadow=0;strokeColor=#000000;fontSize=10;" edge="1" parent="1">
          <mxGeometry width="50" height="50" relative="1" as="geometry">
            <mxPoint x="440" y="358" as="sourcePoint" />
            <mxPoint x="440" y="364" as="targetPoint" />
          </mxGeometry>
        </mxCell>
        <mxCell id="DaDHKpYLHmDfNTXGdmyQ-51" value="" style="endArrow=none;html=1;shadow=0;strokeColor=#000000;fontSize=10;" edge="1" parent="1">
          <mxGeometry width="50" height="50" relative="1" as="geometry">
            <mxPoint x="479.86" y="358" as="sourcePoint" />
            <mxPoint x="479.86" y="364" as="targetPoint" />
          </mxGeometry>
        </mxCell>
        <mxCell id="DaDHKpYLHmDfNTXGdmyQ-52" value="" style="endArrow=none;html=1;shadow=0;strokeColor=#000000;fontSize=10;" edge="1" parent="1">
          <mxGeometry width="50" height="50" relative="1" as="geometry">
            <mxPoint x="519.86" y="358" as="sourcePoint" />
            <mxPoint x="519.86" y="364" as="targetPoint" />
          </mxGeometry>
        </mxCell>
        <mxCell id="DaDHKpYLHmDfNTXGdmyQ-53" value="1" style="text;html=1;align=center;verticalAlign=middle;resizable=0;points=[];autosize=1;fontSize=10;" vertex="1" parent="1">
          <mxGeometry x="230" y="360" width="20" height="20" as="geometry" />
        </mxCell>
        <mxCell id="DaDHKpYLHmDfNTXGdmyQ-54" value="2" style="text;html=1;align=center;verticalAlign=middle;resizable=0;points=[];autosize=1;fontSize=10;" vertex="1" parent="1">
          <mxGeometry x="270" y="360" width="20" height="20" as="geometry" />
        </mxCell>
        <mxCell id="DaDHKpYLHmDfNTXGdmyQ-55" value="3" style="text;html=1;align=center;verticalAlign=middle;resizable=0;points=[];autosize=1;fontSize=10;" vertex="1" parent="1">
          <mxGeometry x="310" y="360" width="20" height="20" as="geometry" />
        </mxCell>
        <mxCell id="DaDHKpYLHmDfNTXGdmyQ-56" value="4" style="text;html=1;align=center;verticalAlign=middle;resizable=0;points=[];autosize=1;fontSize=10;" vertex="1" parent="1">
          <mxGeometry x="350" y="360" width="20" height="20" as="geometry" />
        </mxCell>
        <mxCell id="DaDHKpYLHmDfNTXGdmyQ-57" value="5" style="text;html=1;align=center;verticalAlign=middle;resizable=0;points=[];autosize=1;fontSize=10;" vertex="1" parent="1">
          <mxGeometry x="390" y="360" width="20" height="20" as="geometry" />
        </mxCell>
        <mxCell id="DaDHKpYLHmDfNTXGdmyQ-59" value="6" style="text;html=1;align=center;verticalAlign=middle;resizable=0;points=[];autosize=1;fontSize=10;" vertex="1" parent="1">
          <mxGeometry x="430" y="360" width="20" height="20" as="geometry" />
        </mxCell>
        <mxCell id="DaDHKpYLHmDfNTXGdmyQ-60" value="7" style="text;html=1;align=center;verticalAlign=middle;resizable=0;points=[];autosize=1;fontSize=10;" vertex="1" parent="1">
          <mxGeometry x="470" y="360" width="20" height="20" as="geometry" />
        </mxCell>
        <mxCell id="DaDHKpYLHmDfNTXGdmyQ-61" value="8" style="text;html=1;align=center;verticalAlign=middle;resizable=0;points=[];autosize=1;fontSize=10;" vertex="1" parent="1">
          <mxGeometry x="510" y="360" width="20" height="20" as="geometry" />
        </mxCell>
        <mxCell id="DaDHKpYLHmDfNTXGdmyQ-62" value="1" style="text;html=1;align=center;verticalAlign=middle;resizable=0;points=[];autosize=1;fontSize=10;" vertex="1" parent="1">
          <mxGeometry x="180" y="309" width="20" height="20" as="geometry" />
        </mxCell>
        <mxCell id="DaDHKpYLHmDfNTXGdmyQ-63" value="2" style="text;html=1;align=center;verticalAlign=middle;resizable=0;points=[];autosize=1;fontSize=10;" vertex="1" parent="1">
          <mxGeometry x="180" y="269" width="20" height="20" as="geometry" />
        </mxCell>
        <mxCell id="DaDHKpYLHmDfNTXGdmyQ-64" value="3" style="text;html=1;align=center;verticalAlign=middle;resizable=0;points=[];autosize=1;fontSize=10;" vertex="1" parent="1">
          <mxGeometry x="180" y="230" width="20" height="20" as="geometry" />
        </mxCell>
        <mxCell id="DaDHKpYLHmDfNTXGdmyQ-65" value="4" style="text;html=1;align=center;verticalAlign=middle;resizable=0;points=[];autosize=1;fontSize=10;" vertex="1" parent="1">
          <mxGeometry x="180" y="190" width="20" height="20" as="geometry" />
        </mxCell>
        <mxCell id="DaDHKpYLHmDfNTXGdmyQ-66" value="5" style="text;html=1;align=center;verticalAlign=middle;resizable=0;points=[];autosize=1;fontSize=10;" vertex="1" parent="1">
          <mxGeometry x="180" y="150" width="20" height="20" as="geometry" />
        </mxCell>
        <mxCell id="DaDHKpYLHmDfNTXGdmyQ-67" value="6" style="text;html=1;align=center;verticalAlign=middle;resizable=0;points=[];autosize=1;fontSize=10;" vertex="1" parent="1">
          <mxGeometry x="180" y="110" width="20" height="20" as="geometry" />
        </mxCell>
        <mxCell id="DaDHKpYLHmDfNTXGdmyQ-68" value="7" style="text;html=1;align=center;verticalAlign=middle;resizable=0;points=[];autosize=1;fontSize=10;" vertex="1" parent="1">
          <mxGeometry x="180" y="70" width="20" height="20" as="geometry" />
        </mxCell>
        <mxCell id="DaDHKpYLHmDfNTXGdmyQ-69" value="0" style="text;html=1;align=center;verticalAlign=middle;resizable=0;points=[];autosize=1;fontSize=10;" vertex="1" parent="1">
          <mxGeometry x="180" y="360" width="20" height="20" as="geometry" />
        </mxCell>
        <mxCell id="DaDHKpYLHmDfNTXGdmyQ-70" value="-1" style="text;html=1;align=center;verticalAlign=middle;resizable=0;points=[];autosize=1;fontSize=10;" vertex="1" parent="1">
          <mxGeometry x="180" y="390" width="20" height="20" as="geometry" />
        </mxCell>
        <mxCell id="DaDHKpYLHmDfNTXGdmyQ-71" value="-1" style="text;html=1;align=center;verticalAlign=middle;resizable=0;points=[];autosize=1;fontSize=10;" vertex="1" parent="1">
          <mxGeometry x="150" y="360" width="20" height="20" as="geometry" />
        </mxCell>
      </root>
    </mxGraphModel>
  </diagram>
</mxfile>
